  0
SECTION
  2
HEADER
  9
$ACADVER
  1
AC1015
  9
$INSUNITS
 70
4
  0
ENDSEC
  0
SECTION
  2
TABLES
  0
TABLE
  2
LAYER
 70
6
  0
LAYER
  2
0
 70
0
 62
7
  0
LAYER
  2
CENTER
 70
0
 62
1
  0
LAYER
  2
HIDDEN
 70
0
 62
3
  0
LAYER
  2
DIMENSION
 70
0
 62
2
  0
LAYER
  2
OUTLINE
 70
0
 62
5
  0
ENDTAB
  0
ENDSEC
  0
SECTION
  2
ENTITIES
  0
LINE
  8
OUTLINE
 10
0.0
 20
0.0
 30
0.0
 11
100.0
 21
0.0
 31
0.0
  0
LINE
  8
OUTLINE
 10
100.0
 20
0.0
 30
0.0
 11
100.0
 21
60.0
 31
0.0
  0
LINE
  8
OUTLINE
 10
100.0
 20
60.0
 30
0.0
 11
0.0
 21
60.0
 31
0.0
  0
LINE
  8
OUTLINE
 10
0.0
 20
60.0
 30
0.0
 11
0.0
 21
0.0
 31
0.0
  0
CIRCLE
  8
OUTLINE
 10
50.0
 20
30.0
 30
0.0
 40
20.0
  0
LINE
  8
CENTER
 10
30.0
 20
30.0
 30
0.0
 11
70.0
 21
30.0
 31
0.0
  0
LINE
  8
CENTER
 10
50.0
 20
10.0
 30
0.0
 11
50.0
 21
50.0
 31
0.0
  0
CIRCLE
  8
OUTLINE
 10
20.0
 20
15.0
 30
0.0
 40
5.0
  0
LINE
  8
CENTER
 10
20.0
 20
5.0
 30
0.0
 11
20.0
 21
25.0
 31
0.0
  0
LINE
  8
CENTER
 10
10.0
 20
15.0
 30
0.0
 11
30.0
 21
15.0
 31
0.0
  0
CIRCLE
  8
OUTLINE
 10
80.0
 20
15.0
 30
0.0
 40
5.0
  0
LINE
  8
CENTER
 10
80.0
 20
5.0
 30
0.0
 11
80.0
 21
25.0
 31
0.0
  0
LINE
  8
CENTER
 10
70.0
 20
15.0
 30
0.0
 11
90.0
 21
15.0
 31
0.0
  0
CIRCLE
  8
OUTLINE
 10
20.0
 20
45.0
 30
0.0
 40
5.0
  0
LINE
  8
CENTER
 10
20.0
 20
35.0
 30
0.0
 11
20.0
 21
55.0
 31
0.0
  0
LINE
  8
CENTER
 10
10.0
 20
45.0
 30
0.0
 11
30.0
 21
45.0
 31
0.0
  0
CIRCLE
  8
OUTLINE
 10
80.0
 20
45.0
 30
0.0
 40
5.0
  0
LINE
  8
CENTER
 10
80.0
 20
35.0
 30
0.0
 11
80.0
 21
55.0
 31
0.0
  0
LINE
  8
CENTER
 10
70.0
 20
45.0
 30
0.0
 11
90.0
 21
45.0
 31
0.0
  0
LINE
  8
HIDDEN
 10
35.0
 20
0.0
 30
0.0
 11
35.0
 21
60.0
 31
0.0
  0
LINE
  8
HIDDEN
 10
65.0
 20
0.0
 30
0.0
 11
65.0
 21
60.0
 31
0.0
  0
TEXT
  8
DIMENSION
 10
0.0
 20
-10.0
 30
0.0
 40
4.0
  1
100
  0
TEXT
  8
DIMENSION
 10
-12.0
 20
0.0
 30
0.0
 40
4.0
  1
60
  0
TEXT
  8
DIMENSION
 10
45.0
 20
30.0
 30
0.0
 40
4.0
  1
R20
  0
TEXT
  8
0
 10
5.0
 20
65.0
 30
0.0
 40
5.0
  1
SAMPLE BRACKET - TOP VIEW
  0
ENDSEC
  0
EOF
